HIERARCHY
ROOT Hips
{
	OFFSET -0.001795 -0.223333 0.028219
	CHANNELS 6 Xposition Yposition Zposition Zrotation Yrotation Xrotation 
	JOINT LeftUpLeg
	{
		OFFSET 0.069520 -0.091406 -0.006815
		CHANNELS 3 Zrotation Yrotation Xrotation
		JOINT LeftLeg
		{
			OFFSET 0.034277 -0.375199 -0.004496
			CHANNELS 3 Zrotation Yrotation Xrotation
			JOINT LeftFoot
			{
				OFFSET -0.013596 -0.397961 -0.043693
				CHANNELS 3 Zrotation Yrotation Xrotation
				JOINT LeftToe
				{
					OFFSET 0.026358 -0.055791 0.119288
					CHANNELS 3 Zrotation Yrotation Xrotation
					End Site
					{
						OFFSET 0.000000 0.000000 0.000000
					}
				}
			}
		}
	}
	JOINT RightUpLeg
	{
		OFFSET -0.067670 -0.090522 -0.004320
		CHANNELS 3 Zrotation Yrotation Xrotation
		JOINT RightLeg
		{
			OFFSET -0.038290 -0.382569 -0.008850
			CHANNELS 3 Zrotation Yrotation Xrotation
			JOINT RightFoot
			{
				OFFSET 0.015774 -0.398415 -0.042312
				CHANNELS 3 Zrotation Yrotation Xrotation
				JOINT RightToe
				{
					OFFSET -0.025372 -0.048144 0.123348
					CHANNELS 3 Zrotation Yrotation Xrotation
					End Site
					{
						OFFSET 0.000000 0.000000 0.000000
					}
				}
			}
		}
	}
	JOINT Spine
	{
		OFFSET -0.002533 0.108963 -0.026696
		CHANNELS 3 Zrotation Yrotation Xrotation
		JOINT Spine1
		{
			OFFSET 0.005487 0.135180 0.001092
			CHANNELS 3 Zrotation Yrotation Xrotation
			JOINT Spine2
			{
				OFFSET 0.001457 0.052922 0.025425
				CHANNELS 3 Zrotation Yrotation Xrotation
				JOINT Neck
				{
					OFFSET -0.002778 0.213870 -0.042857
					CHANNELS 3 Zrotation Yrotation Xrotation
					JOINT Head
					{
						OFFSET 0.005152 0.064970 0.051349
						CHANNELS 3 Zrotation Yrotation Xrotation
						End Site
						{
							OFFSET 0.000000 0.000000 0.000000
						}
					}
				}
				JOINT LeftShoulder
				{
					OFFSET 0.078845 0.121749 -0.034090
					CHANNELS 3 Zrotation Yrotation Xrotation
					JOINT LeftArm
					{
						OFFSET 0.090977 0.030469 -0.008868
						CHANNELS 3 Zrotation Yrotation Xrotation
						JOINT LeftForeArm
						{
							OFFSET 0.259612 -0.012772 -0.027456
							CHANNELS 3 Zrotation Yrotation Xrotation
							JOINT LeftHand
							{
								OFFSET 0.249234 0.008986 -0.001171
								CHANNELS 3 Zrotation Yrotation Xrotation
								End Site
								{
									OFFSET 0.000000 0.000000 0.000000
								}
							}
						}
					}
				}
				JOINT RightShoulder
				{
					OFFSET -0.081759 0.118833 -0.038615
					CHANNELS 3 Zrotation Yrotation Xrotation
					JOINT RightArm
					{
						OFFSET -0.096012 0.032551 -0.009143
						CHANNELS 3 Zrotation Yrotation Xrotation
						JOINT RightForeArm
						{
							OFFSET -0.253742 -0.013329 -0.021401
							CHANNELS 3 Zrotation Yrotation Xrotation
							JOINT RightHand
							{
								OFFSET -0.255298 0.007772 -0.005559
								CHANNELS 3 Zrotation Yrotation Xrotation
								End Site
								{
									OFFSET 0.000000 0.000000 0.000000
								}
							}
						}
					}
				}
			}
		}
	}
}
MOTION
Frames: 13
Frame Time: 0.050000
-0.453221 0.934641 0.020948 -4.132901 -64.388383 2.535320 -0.610625 2.087927 10.488897 1.629837 -0.119869 -3.964226 -6.544628 -10.031481 -3.599986 0.000000 0.000000 0.000000 -9.671533 2.085295 -12.052096 9.138780 1.063661 9.971639 -10.785466 -19.362310 4.491212 0.000000 0.000000 0.000000 -4.579335 0.278523 -0.426949 -2.086537 2.756875 5.127950 6.099906 -4.163481 5.254527 -1.308607 -1.478708 -33.546182 0.000000 0.000000 0.000000 -36.501750 -13.351057 25.123989 -21.649016 -21.606173 -3.022667 131.408385 -82.429527 -116.510108 0.000000 0.000000 0.000000 21.190142 33.160155 2.678345 42.580745 4.262753 2.253616 -166.903478 77.094786 177.378317 0.000000 0.000000 0.000000 
-0.489283 0.930580 0.017754 -4.185219 -63.061574 3.368615 0.438498 2.367361 11.596619 2.521641 -0.280497 -3.923097 -7.496825 -11.988540 -6.634712 0.000000 0.000000 0.000000 -10.647525 2.419325 -14.343499 6.349308 0.653090 4.819183 -7.734320 -15.816689 4.914224 0.000000 0.000000 0.000000 -3.639246 0.235940 -1.119506 -1.374959 2.676884 6.186418 4.926916 -4.120328 3.276907 -1.747802 -1.240829 -31.154509 0.000000 0.000000 0.000000 -36.749278 -14.440107 25.440453 -22.116848 -19.760137 -3.048233 138.576529 -83.269063 -125.373715 0.000000 0.000000 0.000000 22.772672 32.665716 2.578389 40.979191 3.776524 2.310762 -171.851638 77.384538 172.995422 0.000000 0.000000 0.000000 
-0.525976 0.927452 0.013177 -3.041595 -61.624874 2.784260 1.016096 2.704808 12.997624 3.051104 -0.332718 -4.606327 -8.242794 -14.173522 -6.879317 0.000000 0.000000 0.000000 -11.569239 2.500531 -14.487528 4.265220 0.434960 0.790054 -5.862202 -14.151216 6.115310 0.000000 0.000000 0.000000 -3.279276 0.208898 -1.152062 -0.465228 2.333111 6.774733 4.347067 -4.760400 2.321530 -1.726033 -1.098323 -31.784874 0.000000 0.000000 0.000000 -37.942837 -14.619891 25.696009 -21.092510 -19.756767 -2.964373 135.417735 -84.977956 -124.403806 0.000000 0.000000 0.000000 23.151454 33.477912 3.458970 40.103208 5.002136 2.584701 -168.308038 78.177787 178.564926 0.000000 0.000000 0.000000 
-0.564509 0.924442 0.006447 -2.312664 -60.321580 2.621228 2.680772 2.774555 13.287937 2.822856 -0.380294 -2.463876 -8.216259 -14.426454 -7.947830 0.000000 0.000000 0.000000 -10.871294 2.423670 -14.873981 4.193380 0.409491 0.473299 -6.575644 -15.378472 6.204918 0.000000 0.000000 0.000000 -2.585629 0.177727 -1.283610 -1.197754 2.755803 7.148947 5.512952 -5.624203 1.161795 -2.924194 -0.626924 -30.226286 0.000000 0.000000 0.000000 -38.986148 -14.712934 26.547317 -21.664340 -18.771968 -3.185024 138.750211 -84.752739 -127.933518 0.000000 0.000000 0.000000 24.151735 34.388867 3.672810 38.293611 5.564542 3.061833 -163.442880 78.787604 -174.908916 0.000000 0.000000 0.000000 
-0.605785 0.921592 -0.001635 -1.933266 -59.418270 2.752727 3.920904 2.852238 13.620866 3.995559 -0.625690 -0.027902 -8.261229 -14.814681 -8.902872 0.000000 0.000000 0.000000 -10.983889 2.411962 -14.895958 5.564055 0.471745 1.785067 -6.197234 -15.256846 6.601464 0.000000 0.000000 0.000000 -1.640353 0.113185 -0.882138 -1.067353 2.676269 7.226141 5.244589 -5.412137 0.297052 -2.616696 -0.641277 -29.356576 0.000000 0.000000 0.000000 -38.940560 -14.407257 25.754717 -22.161146 -17.991649 -3.183543 122.094758 -85.822376 -111.470775 0.000000 0.000000 0.000000 25.350686 34.717272 4.026948 37.383174 5.136179 3.035974 -168.003963 79.616659 -179.484841 0.000000 0.000000 0.000000 
-0.649408 0.920287 -0.010446 -1.884395 -58.714650 3.616589 5.329033 2.569023 12.263284 5.327623 -0.807849 4.276985 -7.398103 -12.810298 -8.711728 0.000000 0.000000 0.000000 -11.063164 2.417649 -14.958231 8.164838 0.630228 3.704494 -7.158522 -16.971192 6.954513 0.000000 0.000000 0.000000 -0.846227 0.194438 -2.420044 -1.074299 3.585794 10.163566 5.705681 -6.179021 -1.609220 -4.356225 0.270168 -27.601469 0.000000 0.000000 0.000000 -40.190049 -13.939005 25.386440 -21.412652 -16.716022 -3.179570 108.494145 -85.066923 -97.581020 0.000000 0.000000 0.000000 25.821732 35.674441 5.189844 36.953147 5.997000 3.178779 -167.157657 82.175593 -177.635422 0.000000 0.000000 0.000000 
-0.693897 0.919927 -0.017803 -3.166110 -58.061430 5.212803 8.287101 2.320035 9.557510 5.017498 -0.123570 11.655196 -6.318395 -10.606904 -5.699044 0.000000 0.000000 0.000000 -9.468312 2.158040 -14.265057 9.353874 0.705230 5.735361 -8.560703 -18.043660 5.216132 0.000000 0.000000 0.000000 0.744881 0.234098 -3.002150 -0.466242 3.259460 10.268106 5.453167 -5.241443 -1.485018 -4.660914 0.534909 -28.630453 0.000000 0.000000 0.000000 -40.582576 -12.996215 24.121949 -23.869482 -15.015025 -3.513115 122.417493 -85.704431 -111.908838 0.000000 0.000000 0.000000 24.713721 36.068312 6.244891 37.001047 6.411430 2.947096 -162.472713 83.368566 -171.981728 0.000000 0.000000 0.000000 
-0.737237 0.921181 -0.022813 -3.596673 -57.369878 4.842811 9.629598 2.124438 6.389558 3.762559 2.133235 21.321879 -3.517807 -5.432653 -2.254495 0.000000 0.000000 0.000000 -8.059691 1.694439 -11.322283 10.595797 0.780011 5.779473 -9.309980 -17.990679 3.509336 0.000000 0.000000 0.000000 1.755078 0.208655 -2.707146 -1.595125 4.033497 10.872171 7.120663 -4.134136 -0.863679 -6.489826 1.448731 -29.683320 0.000000 0.000000 0.000000 -42.179853 -14.347825 25.370990 -23.857971 -14.501290 -3.586810 93.882018 -82.898423 -80.916067 0.000000 0.000000 0.000000 22.971933 35.021691 6.279562 36.225026 6.787160 2.679727 -170.320035 83.600891 179.507210 0.000000 0.000000 0.000000 
-0.777432 0.923258 -0.024798 -4.203187 -56.069389 4.072745 11.371407 2.170833 2.048133 4.538681 4.629517 31.359726 -4.613698 -8.133365 -2.243503 0.000000 0.000000 0.000000 -6.403844 1.128867 -6.112539 10.681197 0.781146 3.411539 -9.088967 -16.410165 1.881195 0.000000 0.000000 0.000000 2.892257 0.080803 -1.210002 -1.855425 3.834134 10.118756 6.305202 -3.365195 0.260608 -5.347106 1.056456 -29.409455 0.000000 0.000000 0.000000 -42.924384 -13.275887 24.232863 -24.223090 -13.759329 -3.804828 99.414703 -83.894262 -87.225124 0.000000 0.000000 0.000000 23.918846 35.268308 6.821321 35.928106 6.934618 2.610641 179.082055 84.735850 168.681737 0.000000 0.000000 0.000000 
-0.814318 0.926035 -0.024105 -4.131831 -55.327954 3.861135 10.648959 1.975947 -2.986790 4.405166 7.034050 37.961582 -3.021660 -5.399990 -3.959310 0.000000 0.000000 0.000000 -5.658874 0.930354 -2.580584 10.866388 0.820592 1.604480 -9.010064 -15.895613 1.471274 0.000000 0.000000 0.000000 3.760495 0.149079 -1.679716 -3.001261 4.704559 10.870672 6.384970 -2.315197 0.844488 -6.174309 1.613287 -27.395370 0.000000 0.000000 0.000000 -42.739723 -13.892181 23.746754 -24.692413 -13.435116 -3.733811 87.626783 -83.221342 -74.818044 0.000000 0.000000 0.000000 23.821398 35.062239 7.386106 35.716017 7.466519 2.524558 -162.401679 86.611317 -170.500048 0.000000 0.000000 0.000000 
-0.848081 0.929096 -0.020753 -4.051020 -54.427559 3.549535 9.743338 1.918153 -7.479346 4.101698 8.117555 40.861401 -2.594492 -4.887689 -5.763284 0.000000 0.000000 0.000000 -4.927063 0.850040 1.481262 10.241408 0.806899 -0.551177 -8.828304 -15.097008 0.805477 0.000000 0.000000 0.000000 3.738331 0.078825 -0.994718 -3.917565 4.969884 10.224028 6.409950 0.071949 1.268184 -5.241408 1.442720 -26.702972 0.000000 0.000000 0.000000 -42.545389 -14.521012 22.781474 -25.781686 -11.570620 -3.842714 100.809494 -84.853001 -89.338616 0.000000 0.000000 0.000000 25.252049 34.405727 8.038176 34.639378 8.078997 2.400437 -110.466599 88.106043 -115.648391 0.000000 0.000000 0.000000 
-0.878934 0.931010 -0.013883 -3.671834 -52.880810 3.480110 8.692758 1.931633 -12.017427 1.259385 8.887556 39.847044 -1.112820 -1.834019 -6.970965 0.000000 0.000000 0.000000 -3.795922 0.715683 4.142738 9.298702 0.660681 -1.318137 -9.541974 -16.213497 0.815800 0.000000 0.000000 0.000000 3.517894 0.110140 -1.403550 -4.630679 5.572466 11.019922 6.819495 1.192437 1.192556 -6.166923 2.149174 -24.996191 0.000000 0.000000 0.000000 -42.433887 -15.015591 21.983791 -25.983483 -11.058056 -3.697516 98.379340 -85.577849 -87.679579 0.000000 0.000000 0.000000 25.348389 34.330180 8.914774 34.285597 8.340781 2.206020 -80.916202 85.670755 -82.402357 0.000000 0.000000 0.000000 
-0.907203 0.931572 -0.003491 -3.890318 -51.704687 3.388224 7.885966 2.013628 -15.361654 -2.071142 8.174440 34.343557 0.011485 0.932307 -7.871640 0.000000 0.000000 0.000000 -2.886404 0.652677 6.628124 8.560848 0.524354 -1.472346 -9.596902 -16.141220 0.459938 0.000000 0.000000 0.000000 3.437165 0.016349 -0.426380 -5.362728 5.661410 10.167876 6.916624 3.659510 1.940748 -6.227118 2.472636 -24.724838 0.000000 0.000000 0.000000 -42.001404 -16.534100 21.540611 -26.436844 -9.671497 -3.639725 94.496567 -86.306980 -84.672009 0.000000 0.000000 0.000000 25.568462 33.445749 9.655226 32.292860 9.828690 2.068853 -69.533517 82.788452 -66.772389 0.000000 0.000000 0.000000 
